<svg xmlns="http://www.w3.org/2000/svg" xmlns:xlink="http://www.w3.org/1999/xlink" viewBox="0 0 108 34.981"><defs><clipPath id="b"><use xlink:href="#a"/></clipPath></defs><g fill="none"><path d="M0 17.49L17.678-.001l.706.7L1.414 17.49l16.97 16.79-.706.7z"/><path d="M17.678 0l.706.699L1.414 17.49l16.97 16.79-.706.7L0 17.49 17.678 0z" fill="#bb9c66"/><path d="M7.707 18.19L7 17.49l.707-.7L24.678-.001l.707.7L8.414 17.49l16.971 16.79-.707.7z"/><path d="M24.678 34.98L7.707 18.19 7 17.49l.707-.7v.001L24.678 0l.707.699L8.414 17.49l16.97 16.79-.706.7z" fill="#bb9c66"/><g transform="translate(1 16.99)" stroke="#bb9c66" stroke-width="3"><path id="a" stroke="none" d="M0 0h107v.99H0z"/><path d="M0-.51h107m-1.5.51v.99m1.5.51H0M1.5.99V0" clip-path="url(#b)"/></g></g></svg>