<svg xmlns="http://www.w3.org/2000/svg" height="20" width="20"><defs><filter height="1.011" y="-.006" width="1.011" x="-.006" id="a" color-interpolation-filters="sRGB"><feGaussianBlur stdDeviation=".046"/></filter></defs><g filter="url(#a)" fill="#ccc"><path d="M15.436 8.222a1.603 1.496 0 01-1.603 1.497 1.603 1.496 0 01-1.603-1.497 1.603 1.496 0 011.603-1.496 1.603 1.496 0 011.603 1.496m3.676.049a1.603 1.496 0 01-1.603 1.496 1.603 1.496 0 01-1.603-1.496 1.603 1.496 0 011.603-1.496 1.603 1.496 0 011.603 1.496m-7.432-.097a1.603 1.496 0 01-1.604 1.496 1.603 1.496 0 01-1.603-1.496 1.603 1.496 0 011.603-1.496 1.603 1.496 0 011.604 1.496m-.534 10.993C5.55 16.935 0 9.027 0 3.17V.067L3.25.042 6.597.016l.225 3.488c.077 2.31.809 3.81-.182 4.057-.478.119-.89.715-2.069.924l1.383 2.622c.593 1.126 2.01 2.532 3.133 3.133l3.008 1.915 1.037-2.11c.635-1.29.51-.182 3.51-.529l3.487-.403.023 3.202-.025 3.878-3.314-.063c-1.822-.035-3.277.117-4.652-.431z" opacity=".955"/></g></svg>