<svg width="54" height="62" viewBox="0 0 54 62" fill="none" xmlns="http://www.w3.org/2000/svg">
<g filter="url(#filter0_d)">
<ellipse cx="27" cy="28.0002" rx="23" ry="24" fill="#CAE3F1"/>
</g>
<circle cx="27" cy="24.0001" r="24" fill="url(#paint0_linear)"/>
<path d="M28.1143 29.8421L32.6775 23.1765C32.8884 22.8687 33 22.5585 33 22.3007C33 21.8023 32.6 21.494 31.9304 21.494L22.068 21.494C21.3992 21.494 21 21.8019 21 22.2992C21 22.5574 21.1117 22.8626 21.3232 23.1711L25.8863 29.8397C26.1802 30.2686 26.5758 30.5061 27.0005 30.5061C27.425 30.5062 27.8205 30.2714 28.1143 29.8421Z" fill="#4DA19C"/>
<defs>
<filter id="filter0_d" x="0" y="4.00024" width="54" height="58" filterUnits="userSpaceOnUse" color-interpolation-filters="sRGB">
<feFlood flood-opacity="0" result="BackgroundImageFix"/>
<feColorMatrix in="SourceAlpha" type="matrix" values="0 0 0 0 0 0 0 0 0 0 0 0 0 0 0 0 0 0 127 0"/>
<feOffset dy="6"/>
<feGaussianBlur stdDeviation="2"/>
<feColorMatrix type="matrix" values="0 0 0 0 0.784253 0 0 0 0 0.885241 0 0 0 0 0.945833 0 0 0 0.35 0"/>
<feBlend mode="normal" in2="BackgroundImageFix" result="effect1_dropShadow"/>
<feBlend mode="normal" in="SourceGraphic" in2="effect1_dropShadow" result="shape"/>
</filter>
<linearGradient id="paint0_linear" x1="27" y1="17" x2="27" y2="48.0001" gradientUnits="userSpaceOnUse">
<stop stop-color="white"/>
<stop offset="1" stop-color="#EFF9FF"/>
</linearGradient>
</defs>
</svg>
