<?xml version="1.0" encoding="utf-8"?>
<!-- Generator: Adobe Illustrator 23.0.0, SVG Export Plug-In . SVG Version: 6.00 Build 0)  -->
<svg version="1.1" id="Слой_1" xmlns="http://www.w3.org/2000/svg" xmlns:xlink="http://www.w3.org/1999/xlink" x="0px" y="0px"
	 viewBox="0 0 99.6 39.5" style="enable-background:new 0 0 99.6 39.5;" xml:space="preserve">
<style type="text/css">
	.st0{fill:#F1FAFF;filter:url(#Adobe_OpacityMaskFilter);}
	.st1{mask:url(#mask0_1_);}
	.st2{fill:#E1F1F9;}
	.st3{fill:#EEF9FF;}
</style>
<defs>
	<filter id="Adobe_OpacityMaskFilter" filterUnits="userSpaceOnUse" x="-92.4" y="-249" width="284.3" height="288.5">
		<feColorMatrix  type="matrix" values="1 0 0 0 0  0 1 0 0 0  0 0 1 0 0  0 0 0 1 0"/>
	</filter>
</defs>
<mask maskUnits="userSpaceOnUse" x="-92.4" y="-249" width="284.3" height="288.5" id="mask0_1_">
	<rect x="-153.2" y="0.2" class="st0" width="421" height="39"/>
</mask>
<g class="st1">
	<path class="st2" d="M3.7-218.5c17.2-40.8,75-40.8,92.1,0l13.6,32.4c5.6,13.4,16.8,23.6,30.6,28.1l17.3,5.6
		c46.1,15,46.1,80.1,0,95.1l-17.3,5.6c-13.8,4.5-25,14.8-30.6,28.1L95.9,8.9c-17.2,40.8-75,40.8-92.1,0L-9.9-23.5
		c-5.6-13.4-16.8-23.6-30.6-28.1l-17.3-5.6c-46.1-15-46.1-80.1,0-95.1l17.3-5.6c13.8-4.5,25-14.8,30.6-28.1L3.7-218.5z"/>
</g>
<path class="st3" d="M20-78.5c10.6-27.1,49-27.1,59.6,0l0.7,1.8c3.3,8.4,10,14.9,18.5,17.9c27.5,9.6,27.5,48.5,0,58.2
	c-8.5,3-15.2,9.5-18.5,17.9l-0.7,1.8c-10.6,27.1-49,27.1-59.6,0l-0.7-1.8C16,8.8,9.3,2.3,0.8-0.7c-27.5-9.6-27.5-48.5,0-58.2
	c8.5-3,15.2-9.5,18.5-17.9L20-78.5z"/>
</svg>
